<svg id="Layer_1" fill="#0070f3" height="512" viewBox="0 0 512 512" width="512" xmlns="http://www.w3.org/2000/svg" data-name="Layer 1"><path d="m256 6c-138.071 0-250 111.929-250 250s111.929 250 250 250 250-111.929 250-250-111.929-250-250-250zm-.291 377.579c-54.342 0-92.636-35.783-92.636-86.387h63.963c0 16.932 11.9 29.045 28.673 29.045 16.4 0 28.355-12.548 28.355-29.435 0-17.91-12.549-30.138-30.834-30.138h-77.614l-6.364-8.239 13.93-130h147.855v56.844h-96.414l-3.142 28.455h23.2v.008c55.842 0 94.238 34.181 94.238 83.079.008 50.655-38.819 86.768-93.21 86.768z"/></svg>