<svg id="Layer_1" height="512" viewBox="0 0 512 512" width="512" xmlns="http://www.w3.org/2000/svg" data-name="Layer 1"><path d="m256 6c-138.071 0-250 111.929-250 250s111.929 250 250 250 250-111.929 250-250-111.929-250-250-250zm.216 377.577c-58.853 0-99.285-37.606-99.285-92.026 0-25.568 7.634-50.874 28.523-85.854l45.84-77.274h72.024c-16.418 27.518-33.016 54.9-49.468 82.4a108.965 108.965 0 0 1 16.5-1.211c49.909 0 84.718 33.421 84.718 81.624.001 54.679-40.328 92.341-98.852 92.341z"/><path d="m256 255.8c-20.2 0-34.842 14.363-34.842 35.431 0 20.853 14.637 35.059 34.842 35.059 20.42 0 34.841-14.206 34.841-35.059-.001-21.067-14.422-35.431-34.841-35.431z"/></svg>