<svg id="Layer_1" height="512" viewBox="0 0 512 512" width="512" xmlns="http://www.w3.org/2000/svg" data-name="Layer 1"><path d="m256.109 224.685c16.886 0 28.366-10.511 28.366-24.934s-11.48-24.93-28.366-24.93-28.579 10.511-28.579 24.93 11.693 24.934 28.579 24.934z"/><path d="m256.109 275.57c-20.16 0-33.514 12.173-33.514 29.651s13.354 29.649 33.514 29.649 33.3-12.169 33.3-29.649-13.14-29.651-33.3-29.651z"/><path d="m256 6c-138.071 0-250 111.929-250 250s111.929 250 250 250 250-111.929 250-250-111.929-250-250-250zm-.109 380.755c-58.785 0-98.525-32.044-98.525-79.452 0-25.061 10.734-44.22 33.1-58.411-17.412-14.126-26.243-31.2-26.243-51.165 0-42.957 36.953-72.482 91.888-72.482s91.67 29.307 91.67 72.477c0 20.195-8.87 37.328-26.353 51.211 22.294 14.332 33.206 33.476 33.206 58.369 0 47.191-39.957 79.453-98.743 79.453z"/></svg>