<svg height="512" viewBox="0 0 512 512" width="512" xmlns="http://www.w3.org/2000/svg"><path d="m256 6c-138.071 0-250 111.929-250 250s111.929 250 250 250 250-111.929 250-250-111.929-250-250-250zm70.546 300.009-46.057 77.862h-72.025c16.419-27.451 33.2-55.441 49.678-82.985a108.849 108.849 0 0 1 -16.493 1.212c-49.909 0-84.718-33.421-84.718-81.624 0-54.683 40.329-92.345 98.852-92.345 58.854 0 99.286 37.605 99.286 92.026 0 25.568-7.796 50.873-28.523 85.854z"/><path d="m256 184.983c-21.5 0-36.571 14.419-36.571 35.491 0 21.282 15.072 35.862 36.571 35.862 21.284 0 36.57-14.58 36.57-35.862.001-21.074-15.285-35.491-36.57-35.491z"/></svg>