<?xml version="1.0" encoding="UTF-8" standalone="no"?>
<!-- Created with Inkscape (http://www.inkscape.org/) -->

<svg
   version="1.1"
   id="svg6267"
   xml:space="preserve"
   width="682.66669"
   height="682.66669"
   viewBox="0 0 682.66669 682.66669"
   xmlns="http://www.w3.org/2000/svg"
   xmlns:svg="http://www.w3.org/2000/svg"><defs
     id="defs6271"><clipPath
       clipPathUnits="userSpaceOnUse"
       id="clipPath6281"><path
         d="M 0,512 H 512 V 0 H 0 Z"
         id="path6279" /></clipPath><clipPath
       clipPathUnits="userSpaceOnUse"
       id="clipPath6297"><path
         d="M 0,512 H 512 V 0 H 0 Z"
         id="path6295" /></clipPath></defs><g
     id="g6273"
     transform="matrix(1.3333333,0,0,-1.3333333,0,682.66667)"><g
       id="g6275"><g
         id="g6277"
         clip-path="url(#clipPath6281)"><g
           id="g6283"
           transform="translate(-61.8271,-127.1631)"><path
             d="m 0,0 c 74.858,59.717 -18.922,147.743 -74.858,67.519 l -67.118,-96.258 6.595,-31.952 42.088,-13.71 z"
             style="fill:#50d960;fill-opacity:1;fill-rule:evenodd;stroke:none"
             id="path6285" /></g><g
           id="g6287"
           transform="translate(-115.2109,-169.7275)"><path
             d="m 0,0 -39.909,-31.837 m -48.683,45.662 67.117,96.258 c 55.937,80.225 149.717,-7.802 74.859,-67.519 L 25.89,20.623"
             style="fill:none;stroke:#000000;stroke-width:15.118;stroke-linecap:round;stroke-linejoin:round;stroke-miterlimit:10;stroke-dasharray:none;stroke-opacity:1"
             id="path6289" /></g></g></g><g
       id="g6291"><g
         id="g6293"
         clip-path="url(#clipPath6297)"><g
           id="g6299"
           transform="translate(432.0293,158.1953)"><path
             d="m 0,0 c -7.021,29.862 -30.397,43.862 -59.725,49.027 -6.739,1.186 -13.76,1.92 -20.979,2.259 -5.329,0.169 -9.757,1.27 -13.507,3.048 -21.064,-39.938 -117.362,-37.116 -133.435,0 v 0.282 c -3.892,-1.947 -8.517,-3.161 -14.1,-3.33 -7.022,-0.339 -13.846,-1.016 -20.388,-2.145 -28.509,-4.883 -51.462,-18.037 -59.47,-45.838 12.378,-11.883 112.878,-102.515 113.668,-107.483 h 26.817 148.775 35.418 v 50.806 c 0,5.419 2.453,10.303 6.317,13.576 z"
             style="fill:#64b0d9;fill-opacity:1;fill-rule:evenodd;stroke:none"
             id="path6301" /></g><g
           id="g6303"
           transform="translate(85.1592,271.6338)"><path
             d="M 0,0 C -24.139,-22.722 14.974,-31.246 -7.586,-53.233"
             style="fill:none;stroke:#000000;stroke-width:15.118;stroke-linecap:round;stroke-linejoin:round;stroke-miterlimit:10;stroke-dasharray:none;stroke-opacity:1"
             id="path6305" /></g><g
           id="g6307"
           transform="translate(126.9775,312.165)"><path
             d="M 0,0 C -24.138,-22.722 15.002,-31.245 -7.558,-53.233"
             style="fill:none;stroke:#000000;stroke-width:15.118;stroke-linecap:round;stroke-linejoin:round;stroke-miterlimit:10;stroke-dasharray:none;stroke-opacity:1"
             id="path6309" /></g><g
           id="g6311"
           transform="translate(466.6855,126.9502)"><path
             d="M 0,0 V 116.627"
             style="fill:none;stroke:#000000;stroke-width:15.118;stroke-linecap:round;stroke-linejoin:round;stroke-miterlimit:10;stroke-dasharray:none;stroke-opacity:1"
             id="path6313" /></g><g
           id="g6315"
           transform="translate(190.2832,209.4814)"><path
             d="M 0,0 C -7.021,-0.339 -13.846,-1.017 -20.388,-2.146 V -47.983 L -5.076,-61.729 14.1,-47.983 V 3.33 C 10.208,1.383 5.583,0.169 0,0"
             style="fill:#e6e6e6;fill-opacity:1;fill-rule:evenodd;stroke:none"
             id="path6317" /></g><g
           id="g6319"
           transform="translate(168.4297,66.5195)"><path
             d="m 0,0 h 41.057 c 7.36,0 13.506,-5.447 14.607,-12.504 H 82.48 231.256 l -13.45,77.874 c -1.27,7.565 -6.261,13.972 -13.931,13.972 v 61.361 c -6.739,1.186 -13.761,1.92 -20.979,2.259 -5.33,0.169 -9.757,1.269 -13.507,3.048 V 79.342 H 63.954 C 64.18,77.648 12.294,5.053 0,0"
             style="fill:#e6e6e6;fill-opacity:1;fill-rule:evenodd;stroke:none"
             id="path6321" /></g><g
           id="g6323"
           transform="translate(169.8955,161.498)"><path
             d="m 0,0 v 45.838 m 34.487,5.475 V 0"
             style="fill:none;stroke:#000000;stroke-width:15.118;stroke-linecap:round;stroke-linejoin:round;stroke-miterlimit:10;stroke-dasharray:none;stroke-opacity:1"
             id="path6325" /></g><g
           id="g6327"
           transform="translate(321.3223,230.3115)"><path
             d="m 0,0 -48.022,15.157 -52.873,-14.875 -0.141,-0.254 c -3.525,-7.479 -8.516,-13.802 -15.903,-17.528 v -0.282 c 16.073,-37.116 112.371,-39.939 133.435,0 C 8.77,-14.113 3.863,-7.508 0,0"
             style="fill:#fcc368;fill-opacity:1;fill-rule:evenodd;stroke:none"
             id="path6329" /></g><g
           id="g6331"
           transform="translate(328.541,374.8818)"><path
             d="m 0,0 c -38.237,5.673 -76.7,5.786 -115.389,0 -11.167,-1.665 -22.333,-3.839 -33.528,-6.492 v -56.45 -17.133 c 0,-26.053 18.978,-49.056 40.804,-64.213 17.821,-12.419 37.56,-19.561 50.277,-18.883 16.073,0.903 34.516,7.621 50.617,18.601 22.898,15.636 41.057,39.91 41.057,68.418 v 13.153 56.535 C 22.587,-3.839 11.308,-1.665 0,0"
             style="fill:#ffdda6;fill-opacity:1;fill-rule:evenodd;stroke:none"
             id="path6333" /></g><g
           id="g6335"
           transform="translate(273.3848,490.4932)"><path
             d="m 0,0 c -17.624,-0.057 -36.179,-9.089 -45.4,-27.068 h -24.758 c -35.784,0 -57.103,-39.346 -23.603,-60.205 v -54.729 c 11.196,2.653 22.362,4.798 33.529,6.491 38.688,5.787 77.151,5.674 115.388,0 11.308,-1.693 22.587,-3.838 33.838,-6.491 v 54.729 c 33.5,20.859 13.112,60.205 -22.672,60.205 H 39.703 C 34.486,-9.089 17.934,-0.057 0.338,0 Z"
             style="fill:#e6e6e6;fill-opacity:1;fill-rule:evenodd;stroke:none"
             id="path6337" /></g><g
           id="g6339"
           transform="translate(362.3789,403.2197)"><path
             d="m 0,0 c 33.5,20.859 13.112,60.205 -22.672,60.205 h -20.894 c 32.089,0 51.913,-28.705 31.441,-50.298 -6.57,-6.915 -8.657,-3.33 -8.657,-13.011 l -0.085,-47.278 c 6.966,-1.27 13.93,-2.71 20.867,-4.347 z"
             style="fill:#c2c7cc;fill-opacity:1;fill-rule:evenodd;stroke:none"
             id="path6341" /></g><g
           id="g6343"
           transform="translate(362.3789,311.8828)"><path
             d="M 0,0 C -1.185,0.226 -11.787,2.258 -20.867,9.483 V 4.347 -8.807 c 0,-28.507 -18.188,-52.809 -41.085,-68.418 -16.102,-11.007 -34.543,-17.697 -50.616,-18.6 -0.565,-0.029 -1.128,-0.057 -1.721,-0.057 8.517,-3.076 16.412,-4.629 22.615,-4.29 16.073,0.903 34.516,7.621 50.617,18.601 C -18.159,-65.935 0,-41.661 0,-13.153 Z"
             style="fill:#fcc368;fill-opacity:1;fill-rule:evenodd;stroke:none"
             id="path6345" /></g><g
           id="g6347"
           transform="translate(337.8184,212.5293)"><path
             d="m 0,0 c -7.727,3.669 -12.633,10.274 -16.496,17.782 -9.475,-6.464 -19.796,-11.46 -29.919,-14.649 4.652,-9.004 8.487,-13.124 21.938,-19.504 1.608,-0.762 3.356,-1.411 5.217,-1.891 C -10.8,-13.718 -4.032,-7.621 0,0"
             style="fill:#eda93b;fill-opacity:1;fill-rule:evenodd;stroke:none"
             id="path6349" /></g><g
           id="g6351"
           transform="translate(432.0293,158.1953)"><path
             d="m 0,0 c -7.021,29.862 -30.397,43.862 -59.725,49.027 -6.739,1.186 -13.76,1.92 -20.979,2.259 -5.329,0.169 -9.757,1.27 -13.507,3.048 -4.032,-7.621 -10.8,-13.718 -19.26,-18.262 2.51,-0.677 5.245,-1.072 8.29,-1.157 3.723,-0.197 7.361,-0.451 10.97,-0.847 3.412,-0.367 6.739,-0.818 10.011,-1.411 8.769,-1.553 17.031,-3.895 24.475,-7.197 17.399,-7.791 30.342,-20.915 35.277,-41.858 7.106,-30.173 9.813,-56.819 9.813,-87.782 H 3.074 v 50.806 c 0,5.419 2.453,10.303 6.317,13.576 z"
             style="fill:#4a83c9;fill-opacity:1;fill-rule:evenodd;stroke:none"
             id="path6353" /></g><g
           id="g6355"
           transform="translate(372.3047,207.2227)"><path
             d="m 0,0 c -6.739,1.186 -13.761,1.92 -20.979,2.259 -5.33,0.169 -9.757,1.269 -13.507,3.048 v -20.266 c 3.412,-0.367 6.739,-0.818 10.01,-1.411 8.77,-1.553 17.032,-3.896 24.476,-7.197 z"
             style="fill:#c2c7cc;fill-opacity:1;fill-rule:evenodd;stroke:none"
             id="path6357" /></g><g
           id="g6359"
           transform="translate(337.8184,145.8613)"><path
             d="M 0,0 V 66.668 M 34.486,61.361 V 0"
             style="fill:none;stroke:#000000;stroke-width:15.118;stroke-linecap:round;stroke-linejoin:round;stroke-miterlimit:10;stroke-dasharray:none;stroke-opacity:1"
             id="path6361" /></g><g
           id="g6363"
           transform="translate(337.8184,212.5293)"><path
             d="M 0,0 C -21.064,-39.938 -117.362,-37.116 -133.436,0"
             style="fill:none;stroke:#000000;stroke-width:15.118;stroke-linecap:round;stroke-linejoin:round;stroke-miterlimit:10;stroke-dasharray:none;stroke-opacity:1"
             id="path6365" /></g><g
           id="g6367"
           transform="translate(498.2686,90.9912)"><path
             d="M 0,0 C 0,17.387 -14.213,31.612 -31.583,31.612 H -45.4 c -4.343,0 -8.347,-1.581 -11.449,-4.206 -3.863,-3.273 -6.316,-8.157 -6.316,-13.576 v -50.806 -6.35 c 0,-9.794 8.008,-17.811 17.765,-17.811 h 13.817 c 17.37,0 31.583,14.226 31.583,31.613 z"
             style="fill:#ffdda6;fill-opacity:1;fill-rule:evenodd;stroke:none"
             id="path6369" /></g><g
           id="g6371"
           transform="translate(482.7305,352.9785)"><path
             d="m 0,0 h -32.09 c -11.984,0 -21.769,-9.822 -21.769,-21.79 v -65.821 c 0,-11.996 9.785,-21.79 21.769,-21.79 H -16.045 0 c 6.739,0 12.774,3.104 16.778,7.96 3.102,3.782 4.992,8.58 4.992,13.83 v 65.821 c 0,5.222 -1.89,10.049 -4.992,13.803 C 12.774,-3.133 6.739,0 0,0"
             style="fill:#e6e6e6;fill-opacity:1;fill-rule:evenodd;stroke:none"
             id="path6373" /></g><g
           id="g6375"
           transform="translate(386.2354,131.8896)"><path
             d="m 0,0 c -1.27,7.564 -6.261,13.972 -13.931,13.972 h -20.077 l 16.44,-91.846 H 13.45 Z"
             style="fill:#c2c7cc;fill-opacity:1;fill-rule:evenodd;stroke:none"
             id="path6377" /></g><g
           id="g6379"
           transform="translate(498.2686,90.9912)"><path
             d="M 0,0 C 0,17.387 -14.213,31.612 -31.583,31.612 H -45.4 c -1.833,0 -3.61,-0.282 -5.301,-0.818 C -36.743,27.548 -26.253,14.931 -26.253,0 v -29.524 c 0,-14.931 -10.49,-27.52 -24.448,-30.794 1.691,-0.508 3.468,-0.819 5.301,-0.819 h 13.817 c 17.37,0 31.583,14.226 31.583,31.613 z"
             style="fill:#fcc368;fill-opacity:1;fill-rule:evenodd;stroke:none"
             id="path6381" /></g><g
           id="g6383"
           transform="translate(288.0762,145.8613)"><path
             d="m 0,0 c -1.156,8.777 -8.742,15.637 -17.85,15.637 h -30.286 c -10.631,0 -12.435,-10.021 -14.718,-20.323 -1.157,-5.136 22.05,-10.923 20.217,-15.721 h 24.787 c 9.926,0 18.019,8.1 18.019,18.008 C 0.169,-1.581 0.112,-0.791 0,0"
             style="fill:#fcc368;fill-opacity:1;fill-rule:evenodd;stroke:none"
             id="path6385" /></g><g
           id="g6387"
           transform="translate(55.7764,161.498)"><path
             d="m 0,0 h -30.286 c -9.898,0 -17.99,-8.129 -17.99,-18.036 0,-9.907 8.092,-18.008 17.99,-18.008 h 24.73 l 23.49,22.298 z"
             style="fill:#fcc368;fill-opacity:1;fill-rule:evenodd;stroke:none"
             id="path6389" /></g><g
           id="g6391"
           transform="translate(204.3828,161.498)"><path
             d="m 0,0 h -34.487 -22.024 -37.447 -31.582 -23.066 c -10.631,0 -12.267,-10.782 -9.983,-21.112 1.156,-5.195 2.651,-10.161 4.427,-14.932 10.49,-27.915 31.47,-48.519 57.976,-58.935 l 34.318,-21.451 45.823,21.451 c 26.196,10.811 46.865,32.262 57.102,58.935 1.833,4.798 3.355,9.794 4.483,14.932 C 47.824,-10.782 46.217,0 35.558,0 H 12.52 Z"
             style="fill:#f78411;fill-opacity:1;fill-rule:evenodd;stroke:none"
             id="path6393" /></g><g
           id="g6395"
           transform="translate(50.2207,125.4541)"><path
             d="m 0,0 h -24.73 c -9.898,0 -17.991,8.101 -17.991,18.008 0,9.907 8.093,18.036 17.991,18.036 H 5.556"
             style="fill:none;stroke:#000000;stroke-width:15.118;stroke-linecap:round;stroke-linejoin:round;stroke-miterlimit:10;stroke-dasharray:none;stroke-opacity:1"
             id="path6397" /></g><g
           id="g6399"
           transform="translate(239.9404,161.498)"><path
             d="m 0,0 h 30.286 c 9.926,0 18.019,-8.129 18.019,-18.036 0,-9.907 -8.093,-18.008 -18.019,-18.008 H 5.499"
             style="fill:none;stroke:#000000;stroke-width:15.118;stroke-linecap:round;stroke-linejoin:round;stroke-miterlimit:10;stroke-dasharray:none;stroke-opacity:1"
             id="path6401" /></g><g
           id="g6403"
           transform="translate(239.9404,161.498)"><path
             d="m 0,0 h -23.038 -7.782 c 10.631,0 12.266,-10.782 9.982,-21.112 -1.156,-5.138 -2.651,-10.134 -4.512,-14.932 -1.946,-5.108 -4.287,-9.992 -6.965,-14.677 -4.822,-8.383 -10.744,-16.032 -17.596,-22.75 -0.451,-0.424 -0.902,-0.875 -1.354,-1.299 -9.023,-8.523 -19.569,-15.411 -31.187,-20.209 h 10.941 19.908 c 5.527,2.287 10.8,5.025 15.791,8.214 18.639,11.883 33.218,29.665 41.311,50.721 1.833,4.798 3.355,9.794 4.483,14.932 0.423,1.834 0.706,3.669 0.819,5.475 C 11.421,-7.311 8.771,0 0,0"
             style="fill:#f74311;fill-opacity:1;fill-rule:evenodd;stroke:none"
             id="path6405" /></g><g
           id="g6407"
           transform="translate(243.9736,54.0156)"><path
             d="m 0,0 h 155.712 l -13.45,77.874 c -1.27,7.564 -6.261,13.972 -13.931,13.972 H 44.103"
             style="fill:none;stroke:#000000;stroke-width:15.118;stroke-linecap:round;stroke-linejoin:round;stroke-miterlimit:10;stroke-dasharray:none;stroke-opacity:1"
             id="path6409" /></g><g
           id="g6411"
           transform="translate(441.4199,118.3975)"><path
             d="m 0,0 -9.391,39.798 c -8.656,36.693 -41.959,49.451 -80.704,51.286 -16.242,0.536 -24.251,9.652 -30.003,20.858 m 78.364,-176.324 h 35.418 m -214.676,176.578 c -0.029,-0.028 -0.113,-0.225 -0.142,-0.254 -5.752,-11.206 -13.761,-20.322 -30.003,-20.858 -37.56,-1.778 -70.016,-13.803 -79.858,-47.983"
             style="fill:none;stroke:#000000;stroke-width:15.118;stroke-linecap:round;stroke-linejoin:round;stroke-miterlimit:10;stroke-dasharray:none;stroke-opacity:1"
             id="path6413" /></g><g
           id="g6415"
           transform="translate(466.6855,29.8545)"><path
             d="m 0,0 h -13.817 c -9.757,0 -17.765,8.017 -17.765,17.811 v 57.156 c 0,9.765 8.008,17.782 17.765,17.782 H 0 c 17.37,0 31.583,-14.226 31.583,-31.612 V 31.612 C 31.583,14.226 17.37,0 0,0 Z"
             style="fill:none;stroke:#000000;stroke-width:15.118;stroke-linecap:round;stroke-linejoin:round;stroke-miterlimit:10;stroke-dasharray:none;stroke-opacity:1"
             id="path6417" /></g><g
           id="g6419"
           transform="translate(499.5088,344.9912)"><path
             d="m 0,0 c -4.004,4.854 -10.039,7.987 -16.778,7.987 h -29.524 c 11.956,0 21.77,-9.822 21.77,-21.79 v -65.821 c 0,-11.996 -9.814,-21.79 -21.77,-21.79 h 13.479 16.045 c 6.739,0 12.774,3.104 16.778,7.96 3.102,3.782 4.991,8.58 4.991,13.83 v 65.821 C 4.991,-8.581 3.102,-3.754 0,0"
             style="fill:#c2c7cc;fill-opacity:1;fill-rule:evenodd;stroke:none"
             id="path6421" /></g><g
           id="g6423"
           transform="translate(362.3789,348.4912)"><path
             d="M 0,0 C -11.251,2.653 -22.53,4.798 -33.838,6.491 -37.814,-29.354 -2.256,-36.213 0,-36.608 Z"
             style="fill:#808080;fill-opacity:1;fill-rule:evenodd;stroke:none"
             id="path6425" /></g><g
           id="g6427"
           transform="translate(213.1523,354.9824)"><path
             d="M 0,0 C -11.167,-1.693 -22.333,-3.838 -33.528,-6.491 V -43.043 C -28.649,-42.084 3.778,-34.237 0,0"
             style="fill:#808080;fill-opacity:1;fill-rule:evenodd;stroke:none"
             id="path6429" /></g><g
           id="g6431"
           transform="translate(362.3789,348.4912)"><path
             d="m 0,0 c -6.937,1.637 -13.901,3.076 -20.867,4.347 v -31.472 c 9.08,-7.226 19.682,-9.258 20.867,-9.483 z"
             style="fill:#666666;fill-opacity:1;fill-rule:evenodd;stroke:none"
             id="path6433" /></g><g
           id="g6435"
           transform="translate(225.2217,314.7617)"><path
             d="M 0,0 C 5.075,5.193 21.487,5.193 26.647,0"
             style="fill:none;stroke:#000000;stroke-width:15.118;stroke-linecap:round;stroke-linejoin:round;stroke-miterlimit:10;stroke-dasharray:none;stroke-opacity:1"
             id="path6437" /></g><g
           id="g6439"
           transform="translate(286.4404,314.7617)"><path
             d="M 0,0 C 5.076,5.193 21.487,5.193 26.647,0"
             style="fill:none;stroke:#000000;stroke-width:15.118;stroke-linecap:round;stroke-linejoin:round;stroke-miterlimit:10;stroke-dasharray:none;stroke-opacity:1"
             id="path6441" /></g><g
           id="g6443"
           transform="translate(254.7451,358.9346)"><path
             d="m 0,0 c -24.956,-1.017 -49.996,-4.488 -75.121,-10.443 m 182.84,0 C 83.834,-4.854 59.865,-1.411 35.841,-0.17"
             style="fill:none;stroke:#000000;stroke-width:15.118;stroke-linecap:round;stroke-linejoin:round;stroke-miterlimit:10;stroke-dasharray:none;stroke-opacity:1"
             id="path6445" /></g><g
           id="g6447"
           transform="translate(179.624,311.9395)"><path
             d="M 0,0 C 4.879,0.959 37.307,8.806 33.528,43.043"
             style="fill:none;stroke:#000000;stroke-width:15.118;stroke-linecap:round;stroke-linejoin:round;stroke-miterlimit:10;stroke-dasharray:none;stroke-opacity:1"
             id="path6449" /></g><g
           id="g6451"
           transform="translate(362.3789,311.8828)"><path
             d="M 0,0 C -2.256,0.396 -37.814,7.254 -33.838,43.1"
             style="fill:none;stroke:#000000;stroke-width:15.118;stroke-linecap:round;stroke-linejoin:round;stroke-miterlimit:10;stroke-dasharray:none;stroke-opacity:1"
             id="path6453" /></g><g
           id="g6455"
           transform="translate(269.8877,442.1709)"><path
             d="M 0,0 V -34.717"
             style="fill:none;stroke:#000000;stroke-width:15.118;stroke-linecap:round;stroke-linejoin:round;stroke-miterlimit:10;stroke-dasharray:none;stroke-opacity:1"
             id="path6457" /></g><g
           id="g6459"
           transform="translate(218.5664,426.4775)"><path
             d="M 0,0 V -34.688"
             style="fill:none;stroke:#000000;stroke-width:15.118;stroke-linecap:round;stroke-linejoin:round;stroke-miterlimit:10;stroke-dasharray:none;stroke-opacity:1"
             id="path6461" /></g><g
           id="g6463"
           transform="translate(321.209,426.4775)"><path
             d="M 0,0 V -34.688"
             style="fill:none;stroke:#000000;stroke-width:15.118;stroke-linecap:round;stroke-linejoin:round;stroke-miterlimit:10;stroke-dasharray:none;stroke-opacity:1"
             id="path6465" /></g><g
           id="g6467"
           transform="translate(188.3379,66.5195)"><path
             d="m 0,0 h -80.141 -36.235 c -8.149,0 -14.776,-6.661 -14.776,-14.79 v -15.439 c 0,-8.129 6.627,-14.791 14.776,-14.791 H 41.057 c 8.121,0 14.776,6.662 14.776,14.791 v 15.439 c 0,0.762 -0.057,1.553 -0.197,2.286 C 54.536,-5.447 48.389,0 41.057,0 Z"
             style="fill:#808080;fill-opacity:1;fill-rule:evenodd;stroke:none"
             id="path6469" /></g><g
           id="g6471"
           transform="translate(243.9736,54.0156)"><path
             d="m 0,0 c -1.1,7.057 -7.247,12.504 -14.579,12.504 h -16.778 -3.13 -10.942 c 7.361,0 13.48,-5.447 14.608,-12.504 0.112,-0.733 0.169,-1.524 0.169,-2.286 v -15.44 c 0,-8.128 -6.655,-14.79 -14.777,-14.79 h 30.85 c 8.121,0 14.776,6.662 14.776,14.79 v 15.44 C 0.197,-1.524 0.141,-0.733 0,0"
             style="fill:#666666;fill-opacity:1;fill-rule:evenodd;stroke:none"
             id="path6473" /></g><g
           id="g6475"
           transform="translate(450.6406,352.9785)"><path
             d="m 0,0 h 32.09 c 11.956,0 21.769,-9.822 21.769,-21.79 v -65.821 c 0,-11.996 -9.813,-21.79 -21.769,-21.79 H 0 c -11.984,0 -21.77,9.794 -21.77,21.79 V -21.79 C -21.77,-9.822 -11.984,0 0,0 Z"
             style="fill:none;stroke:#000000;stroke-width:15.118;stroke-linecap:round;stroke-linejoin:round;stroke-miterlimit:10;stroke-dasharray:none;stroke-opacity:1"
             id="path6477" /></g><g
           id="g6479"
           transform="translate(45.7939,140.3857)"><path
             d="m 0,0 c -2.284,10.33 -0.648,21.112 9.982,21.112 h 23.067 69.029 69.03 23.038 c 10.66,0 12.267,-10.782 9.983,-21.112 -7.416,-33.504 -30.651,-61.108 -61.585,-73.866 H 62.403 C 31.356,-61.673 7.896,-35.479 0,0 Z"
             style="fill:none;stroke:#000000;stroke-width:15.118;stroke-linecap:round;stroke-linejoin:round;stroke-miterlimit:10;stroke-dasharray:none;stroke-opacity:1"
             id="path6481" /></g><g
           id="g6483"
           transform="translate(116.2334,21.5)"><path
             d="m 0,0 h -44.271 c -8.15,0 -14.777,6.661 -14.777,14.79 v 15.439 c 0,8.129 6.627,14.791 14.777,14.791 h 157.432 c 8.121,0 14.777,-6.662 14.777,-14.791 V 14.79 C 127.938,6.661 121.282,0 113.161,0 h -78.73"
             style="fill:none;stroke:#000000;stroke-width:15.118;stroke-linecap:round;stroke-linejoin:round;stroke-miterlimit:10;stroke-dasharray:none;stroke-opacity:1"
             id="path6485" /></g><g
           id="g6487"
           transform="translate(179.624,403.2197)"><path
             d="M 0,0 C -33.5,20.859 -12.182,60.205 23.603,60.205 H 48.36 c 18.499,36.101 74.614,36.101 85.104,0 h 26.619 c 35.784,0 56.172,-39.346 22.672,-60.205 v -104.49 c 0,-48.575 -52.732,-84.846 -91.674,-87.019 C 62.826,-193.062 0,-155.804 0,-108.413 Z"
             style="fill:none;stroke:#000000;stroke-width:15.118;stroke-linecap:round;stroke-linejoin:round;stroke-miterlimit:10;stroke-dasharray:none;stroke-opacity:1"
             id="path6489" /></g></g></g></g></svg>
